<svg xmlns="http://www.w3.org/2000/svg" xmlns:xlink="http://www.w3.org/1999/xlink" width="3343px" height="936px" style="shape-rendering:geometricPrecision; text-rendering:geometricPrecision; image-rendering:optimizeQuality; fill-rule:evenodd; clip-rule:evenodd"><g><path style="opacity:0.994" fill="#221f1f" d="M 2862.5,6.5 C 2904.17,6.5 2945.83,6.5 2987.5,6.5C 2987.33,131.5 2987.5,256.5 2988,381.5C 3037.64,313.693 3087.47,246.026 3137.5,178.5C 3183.83,177.167 3230.17,177.167 3276.5,178.5C 3224.69,250.14 3172.69,321.64 3120.5,393C 3193.62,493.411 3266.62,593.911 3339.5,694.5C 3293.17,695.667 3246.84,695.833 3200.5,695C 3150.29,626.078 3099.96,557.245 3049.5,488.5C 3028.53,514.432 3008.03,540.766 2988,567.5C 2987.5,610.165 2987.33,652.832 2987.5,695.5C 2945.83,695.5 2904.17,695.5 2862.5,695.5C 2862.5,465.833 2862.5,236.167 2862.5,6.5 Z"></path></g><g><path style="opacity:0.986" fill="#221f1f" d="M 2679.5,10.5 C 2713.71,8.27264 2738.54,22.2726 2754,52.5C 2765.65,87.0741 2757.48,115.907 2729.5,139C 2707.51,151.956 2684.51,153.956 2660.5,145C 2634.11,131.757 2620.11,110.257 2618.5,80.5C 2621.82,42.1918 2642.15,18.8585 2679.5,10.5 Z"></path></g><g><path style="opacity:0.98" fill="#e76027" d="M 1924.5,11.5 C 1962.96,11.1309 1981.13,30.1309 1979,68.5C 1973.64,89.1928 1960.47,101.693 1939.5,106C 1918.66,108.327 1902.49,100.827 1891,83.5C 1879.01,58.1173 1883.84,36.6173 1905.5,19C 1911.6,15.5833 1917.94,13.0833 1924.5,11.5 Z"></path></g><g><path style="opacity:0.972" fill="#e76027" d="M 1937.5,141.5 C 1972.74,139.492 2007.41,142.992 2041.5,152C 2051.48,154.881 2061.14,158.548 2070.5,163C 2066.2,173.402 2062.2,183.902 2058.5,194.5C 1981.67,167.985 1906.67,172.319 1833.5,207.5C 1826.34,199.202 1820.67,189.868 1816.5,179.5C 1833.44,167.199 1852.11,158.366 1872.5,153C 1893.97,147.201 1915.64,143.368 1937.5,141.5 Z"></path></g><g><path style="opacity:0.975" fill="#f4b141" d="M 2229.5,151.5 C 2251.16,148.07 2265.99,156.403 2274,176.5C 2278.19,197.96 2270.35,213.127 2250.5,222C 2228.2,226.602 2212.7,218.436 2204,197.5C 2199.78,174.931 2208.28,159.598 2229.5,151.5 Z"></path></g><g><path style="opacity:0.991" fill="#221f1f" d="M 213.5,164.5 C 277.112,160.761 333.445,178.928 382.5,219C 419.453,255.055 443.287,298.555 454,349.5C 457.548,366.669 459.881,384.002 461,401.5C 462.443,499.49 462.943,597.49 462.5,695.5C 420.5,695.5 378.5,695.5 336.5,695.5C 336.667,602.833 336.5,510.166 336,417.5C 335.158,392.646 328.825,369.313 317,347.5C 297.262,317.21 269.095,302.543 232.5,303.5C 181.701,304.14 149.201,328.807 135,377.5C 130.797,394.918 128.464,412.584 128,430.5C 127.5,518.833 127.333,607.166 127.5,695.5C 85.8333,695.5 44.1667,695.5 2.5,695.5C 2.33334,601.833 2.5,508.166 3,414.5C 3.7013,356.411 19.7013,303.077 51,254.5C 83.0994,210.468 125.933,182.301 179.5,170C 190.866,167.45 202.199,165.617 213.5,164.5 Z"></path></g><g><path style="opacity:0.992" fill="#221f1f" d="M 749.5,164.5 C 789.848,162.186 829.181,167.353 867.5,180C 926.535,203.369 966.035,245.202 986,305.5C 995.526,336.465 1001.19,368.131 1003,400.5C 1004.45,498.823 1004.95,597.156 1004.5,695.5C 963.5,695.5 922.5,695.5 881.5,695.5C 881.667,676.497 881.5,657.497 881,638.5C 840.333,687.184 788.166,709.017 724.5,704C 620.813,690.319 556.98,632.486 533,530.5C 523.152,482.218 520.819,433.552 526,384.5C 543.28,252.718 617.78,179.385 749.5,164.5 Z M 751.5,285.5 C 771.13,284.363 790.463,286.196 809.5,291C 840.239,300.739 860.739,320.905 871,351.5C 876.924,370.375 880.257,389.709 881,409.5C 882.562,436.656 881.228,463.656 877,490.5C 860.159,564 814.326,595.833 739.5,586C 710.124,579.899 687.624,564.066 672,538.5C 657.563,510.996 650.23,481.662 650,450.5C 648.205,417.32 652.538,384.986 663,353.5C 679.105,313.21 708.605,290.544 751.5,285.5 Z"></path></g><g><path style="opacity:0.993" fill="#221f1f" d="M 1292.5,164.5 C 1328.81,162.562 1364.48,166.395 1399.5,176C 1466.54,198.042 1510.37,242.875 1531,310.5C 1541,345.8 1546.33,381.8 1547,418.5C 1547.67,507.833 1547.67,597.167 1547,686.5C 1546.08,725.772 1538.75,763.772 1525,800.5C 1502.93,846.565 1468.43,879.732 1421.5,900C 1389.13,913.508 1355.47,921.841 1320.5,925C 1298.54,926.905 1276.54,927.738 1254.5,927.5C 1214.17,926.794 1173.84,926.46 1133.5,926.5C 1133.5,887.833 1133.5,849.167 1133.5,810.5C 1175.83,810.667 1218.17,810.5 1260.5,810C 1294.71,810.355 1327.71,804.355 1359.5,792C 1381.96,783.041 1399.79,768.541 1413,748.5C 1416.49,742.512 1419.16,736.179 1421,729.5C 1423.19,717.263 1424.52,704.93 1425,692.5C 1425.67,674.167 1425.67,655.833 1425,637.5C 1379.75,691.014 1322.25,712.514 1252.5,702C 1164.13,685.727 1106.97,634.561 1081,548.5C 1068.53,503.326 1063.86,457.326 1067,410.5C 1068.83,359.829 1082.16,312.496 1107,268.5C 1144.19,213.625 1195.69,180.459 1261.5,169C 1271.94,167.239 1282.28,165.739 1292.5,164.5 Z M 1295.5,285.5 C 1314.79,284.429 1333.79,286.263 1352.5,291C 1386.74,302.246 1408.24,325.413 1417,360.5C 1427.59,408.205 1427.59,455.872 1417,503.5C 1395.95,569.291 1351.12,596.791 1282.5,586C 1253.12,579.899 1230.62,564.066 1215,538.5C 1200.62,510.635 1193.28,480.969 1193,449.5C 1191.53,417.771 1195.53,386.771 1205,356.5C 1220.74,314.24 1250.91,290.573 1295.5,285.5 Z"></path></g><g><path style="opacity:0.994" fill="#221f1f" d="M 2407.5,177.5 C 2456.83,177.5 2506.17,177.5 2555.5,177.5C 2555.5,218.833 2555.5,260.167 2555.5,301.5C 2521.17,301.333 2486.83,301.5 2452.5,302C 2428.44,304.099 2410.61,315.599 2399,336.5C 2397.71,339.405 2396.71,342.405 2396,345.5C 2395.5,462.166 2395.33,578.833 2395.5,695.5C 2353.5,695.5 2311.5,695.5 2269.5,695.5C 2269.33,567.166 2269.5,438.833 2270,310.5C 2271.71,277.661 2284.04,249.661 2307,226.5C 2334.78,198.526 2368.28,182.192 2407.5,177.5 Z"></path></g><g><path style="opacity:0.996" fill="#221f1f" d="M 2626.5,177.5 C 2668.17,177.5 2709.83,177.5 2751.5,177.5C 2751.5,350.167 2751.5,522.833 2751.5,695.5C 2709.83,695.5 2668.17,695.5 2626.5,695.5C 2626.5,522.833 2626.5,350.167 2626.5,177.5 Z"></path></g><g><path style="opacity:0.976" fill="#c2202e" d="M 1631.5,186.5 C 1654.32,186.826 1667.82,198.159 1672,220.5C 1671.36,250.797 1655.86,264.63 1625.5,262C 1603.36,254.845 1593.86,239.679 1597,216.5C 1602.19,199.14 1613.69,189.14 1631.5,186.5 Z"></path></g><g><path style="opacity:0.966" fill="#f4b141" d="M 2128.5,192.5 C 2168.93,218.096 2201.43,251.43 2226,292.5C 2226.27,295.28 2225.1,297.446 2222.5,299C 2217.77,302.726 2212.77,306.059 2207.5,309C 2204.37,309.79 2201.37,309.457 2198.5,308C 2185.63,294.13 2173.13,279.964 2161,265.5C 2145.67,250.833 2130.33,236.167 2115,221.5C 2111.63,216.32 2111.96,211.32 2116,206.5C 2120,201.665 2124.17,196.998 2128.5,192.5 Z"></path></g><g><path style="opacity:0.967" fill="#c2202e" d="M 1761.5,210.5 C 1762.5,210.414 1763.33,210.748 1764,211.5C 1770.09,219.351 1776.43,227.018 1783,234.5C 1784.29,236.055 1784.96,237.721 1785,239.5C 1747.09,272.413 1718.93,312.246 1700.5,359C 1688.54,356.292 1676.88,352.459 1665.5,347.5C 1685.44,293.25 1717.44,247.583 1761.5,210.5 Z"></path></g><g><path style="opacity:0.992" fill="#221f1f" d="M 1938.5,224.5 C 1988.24,222.686 2034.58,234.186 2077.5,259C 2096.47,270.637 2112.97,285.137 2127,302.5C 2154.92,341.933 2169.92,385.933 2172,434.5C 2177.03,489.32 2166.7,540.986 2141,589.5C 2114.67,631.136 2077.84,659.302 2030.5,674C 1976.73,689.588 1923.07,689.254 1869.5,673C 1799.57,649.74 1756.07,602.24 1739,530.5C 1731.5,493.819 1729.5,456.819 1733,419.5C 1745.32,311.515 1804.82,247.681 1911.5,228C 1920.65,226.856 1929.65,225.69 1938.5,224.5 Z M 1945.5,327.5 C 2002.37,325.891 2037.87,352.558 2052,407.5C 2060.76,447.42 2058.76,486.753 2046,525.5C 2031.11,560.71 2004.61,580.543 1966.5,585C 1904.26,590.397 1865.76,562.897 1851,502.5C 1844.77,470.431 1845.11,438.431 1852,406.5C 1864.24,357.402 1895.41,331.068 1945.5,327.5 Z"></path></g><g><path style="opacity:0.972" fill="#e42c85" d="M 1656.5,409.5 C 1664.35,409.502 1672.01,410.669 1679.5,413C 1682.66,414.48 1684.5,416.98 1685,420.5C 1677.71,503.609 1701.37,576.276 1756,638.5C 1766.05,648.046 1775.55,658.046 1784.5,668.5C 1777.51,677.485 1770.18,686.152 1762.5,694.5C 1692.66,636.827 1654.49,562.493 1648,471.5C 1647.24,455.144 1647.57,438.811 1649,422.5C 1649.01,416.521 1651.51,412.187 1656.5,409.5 Z"></path></g><g><path style="opacity:0.975" fill="#e42c85" d="M 1590.5,566.5 C 1612.15,565.33 1626.32,574.997 1633,595.5C 1635.32,627.51 1620.49,642.676 1588.5,641C 1565.14,634.118 1555.64,618.618 1560,594.5C 1564.47,578.865 1574.64,569.532 1590.5,566.5 Z"></path></g><g><path style="opacity:0.965" fill="#5bbdca" d="M 2202.5,596.5 C 2210.47,598.569 2217.31,602.569 2223,608.5C 2224.03,613.894 2223.03,618.894 2220,623.5C 2197.54,657.623 2169.38,686.123 2135.5,709C 2133.35,710.59 2131.02,711.257 2128.5,711C 2125.96,708.128 2123.13,705.628 2120,703.5C 2117.61,700.772 2115.61,697.772 2114,694.5C 2113.16,690.88 2113.83,687.546 2116,684.5C 2146.07,656.267 2174.9,626.934 2202.5,596.5 Z"></path></g><g><path style="opacity:0.976" fill="#5bbdca" d="M 2234.5,680.5 C 2262.4,683.244 2274.57,698.578 2271,726.5C 2265.75,743.742 2254.08,752.742 2236,753.5C 2213.75,751.513 2202.25,739.346 2201.5,717C 2202.63,695.712 2213.63,683.546 2234.5,680.5 Z"></path></g><g><path style="opacity:0.963" fill="#ad65a1" d="M 1830.5,700.5 C 1856.07,707.31 1881.07,715.81 1905.5,726C 1907.67,729.506 1908.83,733.339 1909,737.5C 1909.72,743.839 1910.06,750.172 1910,756.5C 1908.18,758.405 1906.18,760.072 1904,761.5C 1874.06,751.726 1844.23,741.726 1814.5,731.5C 1820.11,721.27 1825.45,710.937 1830.5,700.5 Z"></path></g><g><path style="opacity:0.969" fill="#5b5da7" d="M 2053.5,714.5 C 2055.6,714.201 2057.6,714.534 2059.5,715.5C 2063.46,725.088 2067.13,734.755 2070.5,744.5C 2040.78,757.012 2009.78,763.178 1977.5,763C 1969.76,754.697 1966.93,744.864 1969,733.5C 1970.17,732.333 1971.33,731.167 1972.5,730C 1999.56,724.603 2026.56,719.436 2053.5,714.5 Z"></path></g><g><path style="opacity:0.976" fill="#ad65a1" d="M 1838.5,769.5 C 1859.8,767.555 1873.97,776.555 1881,796.5C 1885.23,819.547 1876.4,835.047 1854.5,843C 1831.35,846.17 1816.18,836.67 1809,814.5C 1806.32,791.17 1816.15,776.17 1838.5,769.5 Z"></path></g><g><path style="opacity:0.975" fill="#5b5da7" d="M 2022.5,771.5 C 2043.41,770.03 2057.57,779.03 2065,798.5C 2069.63,822.411 2060.47,838.244 2037.5,846C 2010.22,848.537 1994.56,836.37 1990.5,809.5C 1992.25,789.103 2002.91,776.437 2022.5,771.5 Z"></path></g></svg>